# xmcd
#
# Track frame offsets: 
#        150
#        29643
#        40434
#        54763
#        58174
#        84764
#        108527
#        114557
#        130555
#        141712
#        153410
#        177894
#        207679
#        223752
#        242646
#        263217
#        278845
#        306933
#
# Disc length: 4469 seconds
#
# Revision: 0
# Processed by: cddbd v1.5.2PL0 Copyright (c) Steve Scherf et al.
# Submitted via: ExactAudioCopy v1.3
#
DISCID=11117312
DTITLE=The Hamsters - Pet Sounds 10 Years Of Rodent Rock [disk 2]
DYEAR=1998
DGENRE=Blues Rock, Boogie Rock
TTITLE0=Little Wing
TTITLE1=Straight Ahead
TTITLE2=If 6 Was 9
TTITLE3=Machine Gun
TTITLE4=Voodoo Chile
TTITLE5=Hey, Baby (Land Of The Rising Sun)
TTITLE6=Moon, Turn The Tides Gently Away...
TTITLE7=Midnight
TTITLE8=Pali Gap
TTITLE9=Sunshine Of Your Love
TTITLE10=She's Just Killing Me
TTITLE11=Fool For Your Stockings
TTITLE12=Can't Stop Rockin'
TTITLE13=My Head's In Mississippi
TTITLE14=Pincushion
TTITLE15=Got Me Under Pressure
TTITLE16=Blues For The Blues
TTITLE17=All Along The Watchtower
EXTD=
EXTT0=
EXTT1=
EXTT2=
EXTT3=
EXTT4=
EXTT5=
EXTT6=
EXTT7=
EXTT8=
EXTT9=
EXTT10=
EXTT11=
EXTT12=
EXTT13=
EXTT14=
EXTT15=
EXTT16=
EXTT17=
PLAYORDER=
